<svg width="152" height="28" viewBox="0 0 152 28" fill="none" xmlns="http://www.w3.org/2000/svg">
<path d="M128.229 21.6899V7.1999H132.159V21.6899H128.229ZM137.679 21.6899V13.1399C137.679 12.2999 137.409 11.6499 136.869 11.1899C136.349 10.7099 135.699 10.4699 134.919 10.4699C134.399 10.4699 133.929 10.5799 133.509 10.7999C133.089 10.9999 132.759 11.2999 132.519 11.6999C132.279 12.0999 132.159 12.5799 132.159 13.1399L130.629 12.3899C130.629 11.2699 130.869 10.2999 131.349 9.4799C131.849 8.6599 132.519 8.0299 133.359 7.5899C134.199 7.1299 135.149 6.8999 136.209 6.8999C137.209 6.8999 138.119 7.1299 138.939 7.5899C139.759 8.0299 140.409 8.6599 140.889 9.4799C141.369 10.2799 141.609 11.2499 141.609 12.3899V21.6899H137.679ZM147.129 21.6899V13.1399C147.129 12.2999 146.859 11.6499 146.319 11.1899C145.799 10.7099 145.149 10.4699 144.369 10.4699C143.869 10.4699 143.399 10.5799 142.959 10.7999C142.539 10.9999 142.209 11.2999 141.969 11.6999C141.729 12.0999 141.609 12.5799 141.609 13.1399L139.359 12.5999C139.439 11.4399 139.749 10.4399 140.289 9.5999C140.829 8.7399 141.539 8.0799 142.419 7.6199C143.299 7.1399 144.279 6.8999 145.359 6.8999C146.439 6.8999 147.409 7.1299 148.269 7.5899C149.129 8.0299 149.809 8.6699 150.309 9.5099C150.809 10.3499 151.059 11.3499 151.059 12.5099V21.6899H147.129Z" fill="white"/>
<path d="M117.959 21.99C116.499 21.99 115.179 21.66 113.999 21C112.839 20.32 111.909 19.41 111.209 18.27C110.529 17.11 110.189 15.82 110.189 14.4C110.189 12.98 110.529 11.71 111.209 10.59C111.889 9.45 112.819 8.54999 113.999 7.88999C115.179 7.20999 116.489 6.87 117.929 6.87C119.409 6.87 120.729 7.20999 121.889 7.88999C123.069 8.54999 123.999 9.45 124.679 10.59C125.359 11.71 125.699 12.98 125.699 14.4C125.699 15.82 125.359 17.11 124.679 18.27C123.999 19.41 123.069 20.32 121.889 21C120.729 21.66 119.419 21.99 117.959 21.99ZM117.929 18.33C118.669 18.33 119.319 18.17 119.879 17.85C120.459 17.51 120.899 17.05 121.199 16.47C121.519 15.87 121.679 15.19 121.679 14.43C121.679 13.67 121.519 13 121.199 12.42C120.879 11.84 120.439 11.39 119.879 11.07C119.319 10.73 118.669 10.56 117.929 10.56C117.209 10.56 116.569 10.73 116.009 11.07C115.449 11.39 115.009 11.84 114.689 12.42C114.369 13 114.209 13.67 114.209 14.43C114.209 15.19 114.369 15.87 114.689 16.47C115.009 17.05 115.449 17.51 116.009 17.85C116.569 18.17 117.209 18.33 117.929 18.33Z" fill="white"/>
<path d="M100.879 21.99C99.419 21.99 98.099 21.66 96.919 21C95.759 20.32 94.829 19.41 94.129 18.27C93.449 17.11 93.109 15.82 93.109 14.4C93.109 12.98 93.449 11.71 94.129 10.59C94.809 9.45 95.739 8.54999 96.919 7.88999C98.099 7.20999 99.409 6.87 100.849 6.87C102.329 6.87 103.649 7.20999 104.809 7.88999C105.989 8.54999 106.919 9.45 107.599 10.59C108.279 11.71 108.619 12.98 108.619 14.4C108.619 15.82 108.279 17.11 107.599 18.27C106.919 19.41 105.989 20.32 104.809 21C103.649 21.66 102.339 21.99 100.879 21.99ZM100.849 18.33C101.589 18.33 102.239 18.17 102.799 17.85C103.379 17.51 103.819 17.05 104.119 16.47C104.439 15.87 104.599 15.19 104.599 14.43C104.599 13.67 104.439 13 104.119 12.42C103.799 11.84 103.359 11.39 102.799 11.07C102.239 10.73 101.589 10.56 100.849 10.56C100.129 10.56 99.489 10.73 98.929 11.07C98.369 11.39 97.929 11.84 97.609 12.42C97.289 13 97.129 13.67 97.129 14.43C97.129 15.19 97.289 15.87 97.609 16.47C97.929 17.05 98.369 17.51 98.929 17.85C99.489 18.17 100.129 18.33 100.849 18.33Z" fill="white"/>
<path d="M78.1998 21.69V0.599976H82.2798V21.69H78.1998ZM81.1998 21.69V18.06H91.9398V21.69H81.1998Z" fill="white"/>
<path d="M71.6322 21.9899C70.9122 21.9899 70.3222 21.7499 69.8622 21.2699C69.4022 20.7899 69.1722 20.1999 69.1722 19.4999C69.1722 18.7999 69.4022 18.2099 69.8622 17.7299C70.3222 17.2499 70.9122 17.0099 71.6322 17.0099C72.3322 17.0099 72.9122 17.2499 73.3722 17.7299C73.8322 18.2099 74.0622 18.7999 74.0622 19.4999C74.0622 20.1999 73.8322 20.7899 73.3722 21.2699C72.9122 21.7499 72.3322 21.9899 71.6322 21.9899Z" fill="#B8A893"/>
<path d="M59.6318 21.99C58.1118 21.99 56.7618 21.67 55.5818 21.03C54.4018 20.37 53.4618 19.47 52.7618 18.33C52.0818 17.19 51.7418 15.89 51.7418 14.43C51.7418 12.99 52.0718 11.71 52.7318 10.59C53.4118 9.45 54.3318 8.54999 55.4918 7.88999C56.6518 7.20999 57.9418 6.87 59.3618 6.87C60.7618 6.87 61.9918 7.19 63.0518 7.83C64.1318 8.44999 64.9718 9.30999 65.5718 10.41C66.1918 11.49 66.5018 12.72 66.5018 14.1C66.5018 14.36 66.4818 14.63 66.4418 14.91C66.4218 15.17 66.3718 15.47 66.2918 15.81L54.1118 15.84V12.9L64.4618 12.87L62.8718 14.1C62.8318 13.24 62.6718 12.52 62.3918 11.94C62.1318 11.36 61.7418 10.92 61.2218 10.62C60.7218 10.3 60.1018 10.14 59.3618 10.14C58.5818 10.14 57.9018 10.32 57.3218 10.68C56.7418 11.02 56.2918 11.51 55.9718 12.15C55.6718 12.77 55.5218 13.51 55.5218 14.37C55.5218 15.25 55.6818 16.02 56.0018 16.68C56.3418 17.32 56.8218 17.82 57.4418 18.18C58.0618 18.52 58.7818 18.69 59.6018 18.69C60.3418 18.69 61.0118 18.57 61.6118 18.33C62.2118 18.07 62.7318 17.69 63.1718 17.19L65.4818 19.5C64.7818 20.32 63.9218 20.94 62.9018 21.36C61.9018 21.78 60.8118 21.99 59.6318 21.99Z" fill="white"/>
<path d="M45.2897 21.69V0H49.2197V21.69H45.2897Z" fill="white"/>
<path d="M34.4102 21.81L28.3502 7.19995H32.6102L36.6302 18.36H35.1902L39.3602 7.19995H43.6502L37.2002 21.78L34.4102 21.81ZM30.3902 27.75L34.8002 18.42L37.2002 21.78L34.5602 27.75H30.3902Z" fill="white"/>
<path d="M20.3201 21.6899V1.16992H24.2501V21.6899H20.3201ZM16.9301 10.6499V7.19992H27.6401V10.6499H16.9301Z" fill="white"/>
<path d="M7.65 21.9899C5.95 21.9899 4.49 21.6999 3.27 21.1199C2.07 20.5399 0.98 19.6699 0 18.5099L2.7 15.8099C3.32 16.6299 4.04 17.2699 4.86 17.7299C5.68 18.1699 6.68 18.3899 7.86 18.3899C8.92 18.3899 9.76 18.1799 10.38 17.7599C11.02 17.3399 11.34 16.7599 11.34 16.0199C11.34 15.3799 11.16 14.8599 10.8 14.4599C10.44 14.0599 9.96 13.7199 9.36 13.4399C8.78 13.1599 8.13 12.9099 7.41 12.6899C6.71 12.4499 6 12.1799 5.28 11.8799C4.58 11.5799 3.93 11.2099 3.33 10.7699C2.75 10.3099 2.28 9.7299 1.92 9.0299C1.56 8.3099 1.38 7.4099 1.38 6.3299C1.38 5.0499 1.69 3.9599 2.31 3.0599C2.93 2.1599 3.78 1.4699 4.86 0.989897C5.94 0.509897 7.16 0.269897 8.52 0.269897C9.96 0.269897 11.26 0.539898 12.42 1.0799C13.58 1.6199 14.53 2.3199 15.27 3.1799L12.57 5.8799C11.95 5.1999 11.31 4.6999 10.65 4.3799C10.01 4.0599 9.28 3.8999 8.46 3.8999C7.52 3.8999 6.78 4.0799 6.24 4.4399C5.7 4.7999 5.43 5.3199 5.43 5.9999C5.43 6.5799 5.61 7.0499 5.97 7.4099C6.33 7.7699 6.8 8.0799 7.38 8.3399C7.98 8.5999 8.63 8.8499 9.33 9.0899C10.05 9.3299 10.76 9.5999 11.46 9.8999C12.18 10.1999 12.83 10.5899 13.41 11.0699C14.01 11.5499 14.49 12.1699 14.85 12.9299C15.21 13.6699 15.39 14.5899 15.39 15.6899C15.39 17.6499 14.7 19.1899 13.32 20.3099C11.94 21.4299 10.05 21.9899 7.65 21.9899Z" fill="white"/>
</svg>
